<?xml version="1.0" encoding="utf-8"?>
<!-- Svg Vector Icons : http://www.onlinewebfonts.com/icon -->
<!DOCTYPE svg PUBLIC "-//W3C//DTD SVG 1.1//EN" "http://www.w3.org/Graphics/SVG/1.1/DTD/svg11.dtd">
<svg version="1.1" xmlns="http://www.w3.org/2000/svg" xmlns:xlink="http://www.w3.org/1999/xlink" x="0px" y="0px" viewBox="0 0 256 256" enable-background="new 0 0 256 256" xml:space="preserve">
<metadata> Svg Vector Icons : http://www.onlinewebfonts.com/icon </metadata>
<g><g><path fill="#000000" d="M128,246c-15.9,0-31.4-3.1-45.9-9.3c-14.1-5.9-26.7-14.4-37.5-25.3c-10.8-10.8-19.3-23.5-25.3-37.5c-6.1-14.6-9.3-30-9.3-45.9c0-15.9,3.1-31.4,9.3-45.9C25.2,68,33.7,55.4,44.6,44.6C55.4,33.7,68,25.2,82.1,19.3c14.6-6.1,30-9.3,45.9-9.3c15.9,0,31.4,3.1,45.9,9.3c14.1,5.9,26.7,14.4,37.5,25.3c10.8,10.8,19.3,23.5,25.3,37.5c6.1,14.6,9.3,30,9.3,45.9c0,15.9-3.1,31.4-9.3,45.9c-5.9,14.1-14.4,26.7-25.3,37.5c-10.8,10.8-23.5,19.3-37.5,25.3C159.4,242.9,143.9,246,128,246z M128,20.2c-14.6,0-28.7,2.8-42,8.5c-12.8,5.4-24.4,13.2-34.3,23.1C41.9,61.7,34.1,73.2,28.7,86c-5.6,13.3-8.5,27.4-8.5,42c0,14.5,2.8,28.7,8.5,42c5.4,12.8,13.2,24.4,23.1,34.3c9.9,9.9,21.4,17.7,34.3,23.1c13.3,5.6,27.4,8.5,42,8.5c14.6,0,28.7-2.8,42-8.5c12.8-5.4,24.4-13.2,34.3-23.1c9.9-9.9,17.7-21.4,23.1-34.3c5.6-13.3,8.5-27.4,8.5-42c0-14.6-2.8-28.7-8.5-42c-5.4-12.8-13.2-24.4-23.1-34.3c-9.9-9.9-21.4-17.7-34.3-23.1C156.7,23,142.6,20.2,128,20.2z"/><path fill="#000000" d="M176.2,79.8H79.8c-8.9,0-16.1,7.2-16.1,16.1v64.2c0,8.9,7.2,16.1,16.1,16.1h96.3c8.9,0,16.1-7.2,16.1-16.1V95.9C192.2,87,185,79.8,176.2,79.8z M176.2,87.9c1.4,0,2.7,0.4,3.8,1l-52,46.4L76,88.8c1.1-0.6,2.4-1,3.8-1H176.2L176.2,87.9z M184.2,160.1c0,4.4-3.6,8-8,8H79.8c-4.4,0-8-3.6-8-8V95.9c0,0,0,0,0-0.1L128,146l56.2-50.1c0,0,0,0,0,0L184.2,160.1L184.2,160.1z"/></g></g>
</svg>